<?xml version="1.0" encoding="UTF-8" standalone="no"?>
<!-- Created with Inkscape (http://www.inkscape.org/) -->

<svg
   width="70mm"
   height="85mm"
   viewBox="0 0 70 85"
   version="1.1"
   id="svg990"
   inkscape:version="1.1.2 (0a00cf5, 2022-02-04)"
   sodipodi:docname="paxpar4.svg"
   inkscape:export-filename="/home/philippe/src/paxpar/docs/logo/paxpar/paxpar2_4k.png"
   inkscape:export-xdpi="1473.96"
   inkscape:export-ydpi="1473.96"
   xmlns:inkscape="http://www.inkscape.org/namespaces/inkscape"
   xmlns:sodipodi="http://sodipodi.sourceforge.net/DTD/sodipodi-0.dtd"
   xmlns="http://www.w3.org/2000/svg"
   xmlns:svg="http://www.w3.org/2000/svg"
   xmlns:rdf="http://www.w3.org/1999/02/22-rdf-syntax-ns#"
   xmlns:cc="http://creativecommons.org/ns#"
   xmlns:dc="http://purl.org/dc/elements/1.1/">
  <defs
     id="defs984" />
  <sodipodi:namedview
     id="base"
     pagecolor="#ffffff"
     bordercolor="#666666"
     borderopacity="1.0"
     inkscape:pageopacity="0.0"
     inkscape:pageshadow="2"
     inkscape:zoom="1.875"
     inkscape:cx="89.066667"
     inkscape:cy="348.53333"
     inkscape:document-units="mm"
     inkscape:current-layer="layer2"
     showgrid="false"
     fit-margin-top="0"
     fit-margin-left="0"
     fit-margin-right="0"
     fit-margin-bottom="0"
     inkscape:window-width="3768"
     inkscape:window-height="2096"
     inkscape:window-x="72"
     inkscape:window-y="27"
     inkscape:window-maximized="1"
     inkscape:pagecheckerboard="1"
     showguides="true"
     inkscape:guide-bbox="true"
     borderlayer="true">
    <sodipodi:guide
       position="34.999999,84.999999"
       orientation="-1,0"
       id="guide1162"
       inkscape:label=""
       inkscape:locked="false"
       inkscape:color="rgb(0,0,255)" />
  </sodipodi:namedview>
  <metadata
     id="metadata987">
    <rdf:RDF>
      <cc:Work
         rdf:about="">
        <dc:format>image/svg+xml</dc:format>
        <dc:type
           rdf:resource="http://purl.org/dc/dcmitype/StillImage" />
      </cc:Work>
    </rdf:RDF>
  </metadata>
  <g
     inkscape:label="Layer 1"
     inkscape:groupmode="layer"
     id="layer1"
     transform="translate(717.91716,178.13833)"
     style="display:none">
    <g
       inkscape:export-ydpi="59.438065"
       inkscape:export-xdpi="59.438065"
       transform="translate(-837.97345,-386.01885)"
       id="g972"
       style="fill:#57cbcc;fill-opacity:1">
      <path
         id="path970"
         transform="matrix(0.26458333,0,0,0.26458333,98.622456,201.52122)"
         d="M 218.69727,24.035156 V 347.06055 c 10.104,-2.78375 19.84435,-6.5918 29.13867,-11.28711 v -6.87305 h 0.0273 V 69.347656 l 27.05274,12.058594 c -7.86267,3.504378 -12.22343,5.447521 -21.23243,9.462891 V 123.22852 L 347.78516,81.40625 Z M 209.60742,24.251953 81.009766,81.40625 175.11133,123.22852 V 90.869141 C 166.31206,86.947276 161.8031,84.93803 153.87891,81.40625 L 180.93164,69.347656 V 303.02734 c -0.0189,-0.0151 -0.0405,-0.0266 -0.0605,-0.0391 v 32.74414 c 9.16976,4.63913 18.77631,8.40802 28.73633,11.1875 z M 81.009766,89.082031 v 81.248049 c 0,66.44863 37.144984,129.40739 91.736324,160.99804 v -34.2207 c -35.96825,-28.0916 -62.09375,-76.36623 -62.09375,-123.51758 v -71.88476 z m 266.773434,0 -29.64258,12.623049 v 71.88476 c 0,47.34407 -26.34129,95.81704 -62.5371,123.85743 v 34.13867 C 310.43747,300.0804 347.7832,236.95876 347.7832,170.33008 Z"
         style="fill:#57cbcc;fill-opacity:1;stroke-width:14.8207"
         inkscape:connector-curvature="0" />
    </g>
  </g>
  <g
     inkscape:groupmode="layer"
     id="layer2"
     inkscape:label="guides" />
  <g
     inkscape:groupmode="layer"
     id="layer3"
     inkscape:label="ok_part"
     style="display:inline">
    <path
       id="rect17398"
       style="fill:#57cbcc;fill-opacity:1;stroke:none;stroke-width:1.76456;stroke-miterlimit:4;stroke-dasharray:none;stroke-opacity:1;stop-color:#000000"
       inkscape:transform-center-x="-34.560951"
       inkscape:transform-center-y="-20.532726"
       d="m 60.375643,11.365714 -14.375868,6.703467 v 8.827368 l 19.868554,-9.265067 0.590661,-0.275436 3.381706,-1.576648 z"
       sodipodi:nodetypes="ccccccc" />
    <path
       id="path23818"
       style="fill:#57cbcc;fill-opacity:1;stroke:none;stroke-width:0.264583px;stroke-linecap:butt;stroke-linejoin:miter;stroke-opacity:1"
       d="m 69.980224,17.92087 -7.942667,3.70365 C 61.644135,58.377171 57.166081,65.512052 45.999775,71.289705 v 9.626286 C 61.020734,74.948356 69.764353,67.859637 69.980224,17.92087 Z"
       sodipodi:nodetypes="ccccc" />
    <path
       id="rect28056"
       style="fill:#57cbcc;fill-opacity:1;stroke:none;stroke-width:1.81886;stroke-miterlimit:4;stroke-dasharray:none;stroke-opacity:1;stop-color:#000000"
       d="M 35.999869,1.6666667e-7 V 84.809292 c 2.823382,-1.170942 5.490716,-2.148231 8.000029,-3.107303 V 3.7294882 L 36.001936,1.6666667e-7 Z" />
    <path
       id="rect16996"
       style="fill:#57cbcc;fill-opacity:1;stroke:none;stroke-width:1.76455;stroke-miterlimit:4;stroke-dasharray:none;stroke-opacity:1;stop-color:#000000"
       inkscape:transform-center-x="-34.559197"
       inkscape:transform-center-y="20.529805"
       d="M 35.999869,-0.00103353 V 8.8258178 l 24.375774,11.3667482 9.465053,-4.413167 z"
       sodipodi:nodetypes="ccccc" />
    <path
       id="path30017"
       style="fill:#57cbcc;fill-opacity:1;stroke:none;stroke-width:1.76456;stroke-miterlimit:4;stroke-dasharray:none;stroke-opacity:1;stop-color:#000000"
       inkscape:transform-center-x="-34.560951"
       inkscape:transform-center-y="-20.532726"
       d="m 9.624357,11.365714 14.375868,6.703467 v 8.827368 L 4.131671,17.631482 3.54101,17.356046 0.159304,15.779398 Z"
       sodipodi:nodetypes="ccccccc" />
    <path
       id="path30019"
       style="fill:#57cbcc;fill-opacity:1;stroke:none;stroke-width:0.264583px;stroke-linecap:butt;stroke-linejoin:miter;stroke-opacity:1"
       d="M 0.01977561,17.92087 7.9624428,21.62452 C 8.355865,58.377171 12.833919,65.512052 24.000225,71.289705 v 9.626286 C 8.9792657,74.948356 0.2356465,67.859637 0.01977561,17.92087 Z"
       sodipodi:nodetypes="ccccc" />
    <path
       id="path30021"
       style="fill:#57cbcc;fill-opacity:1;stroke:none;stroke-width:1.81886;stroke-miterlimit:4;stroke-dasharray:none;stroke-opacity:1;stop-color:#000000"
       d="M 34.000131,1.6666667e-7 V 84.809292 C 31.176749,83.63835 28.509415,82.661061 26.000102,81.701989 V 3.7294882 L 33.998064,1.6666667e-7 Z" />
    <path
       id="path30023"
       style="fill:#57cbcc;fill-opacity:1;stroke:none;stroke-width:1.76455;stroke-miterlimit:4;stroke-dasharray:none;stroke-opacity:1;stop-color:#000000"
       inkscape:transform-center-x="-34.559197"
       inkscape:transform-center-y="20.529805"
       d="M 34.000131,-0.00103353 V 8.8258178 L 9.624357,20.192566 0.159304,15.779399 Z"
       sodipodi:nodetypes="ccccc" />
  </g>
</svg>
